<svg width="167" height="27" viewBox="0 0 167 27" fill="none" xmlns="http://www.w3.org/2000/svg">
<g id="Group 3">
<path id="Star" d="M12.5042 3.10696C12.8048 2.18837 14.1043 2.18836 14.4049 3.10696L16.1558 8.45669C16.2904 8.86767 16.6738 9.14564 17.1062 9.14564H22.7568C23.7272 9.14564 24.1288 10.389 23.3417 10.9567L18.7829 14.2449C18.4299 14.4995 18.2821 14.9533 18.4175 15.367L20.1618 20.6964C20.4629 21.6165 19.4115 22.3848 18.6264 21.8185L14.0395 18.5101C13.6902 18.2581 13.2189 18.2581 12.8696 18.5101L8.2827 21.8185C7.49757 22.3848 6.4462 21.6165 6.74732 20.6964L8.49158 15.367C8.62698 14.9533 8.47922 14.4995 8.12618 14.2449L3.56735 10.9567C2.78025 10.389 3.18185 9.14564 4.15234 9.14564H9.80285C10.2353 9.14564 10.6187 8.86768 10.7532 8.45669L12.5042 3.10696Z" fill="#070707"/>
<path id="Star_2" d="M47.6013 3.10696C47.902 2.18837 49.2015 2.18836 49.5021 3.10696L51.253 8.45669C51.3875 8.86767 51.771 9.14564 52.2034 9.14564H57.8539C58.8244 9.14564 59.226 10.389 58.4389 10.9567L53.8801 14.2449C53.527 14.4995 53.3793 14.9533 53.5147 15.367L55.2589 20.6964C55.5601 21.6165 54.5087 22.3848 53.7236 21.8185L49.1367 18.5101C48.7874 18.2581 48.316 18.2581 47.9667 18.5101L43.3799 21.8185C42.5947 22.3848 41.5434 21.6165 41.8445 20.6964L43.5888 15.367C43.7241 14.9533 43.5764 14.4995 43.2233 14.2449L38.6645 10.9567C37.8774 10.389 38.279 9.14564 39.2495 9.14564H44.9C45.3325 9.14564 45.7159 8.86768 45.8504 8.45669L47.6013 3.10696Z" fill="#070707"/>
<path id="Star_3" d="M82.6985 3.10696C82.9991 2.18837 84.2986 2.18836 84.5993 3.10696L86.3502 8.45669C86.4847 8.86767 86.8681 9.14564 87.3006 9.14564H92.9511C93.9216 9.14564 94.3232 10.389 93.5361 10.9567L88.9772 14.2449C88.6242 14.4995 88.4764 14.9533 88.6118 15.367L90.3561 20.6964C90.6572 21.6165 89.6059 22.3848 88.8207 21.8185L84.2339 18.5101C83.8846 18.2581 83.4132 18.2581 83.0639 18.5101L78.477 21.8185C77.6919 22.3848 76.6405 21.6165 76.9417 20.6964L78.6859 15.367C78.8213 14.9533 78.6736 14.4995 78.3205 14.2449L73.7617 10.9567C72.9746 10.389 73.3762 9.14564 74.3467 9.14564H79.9972C80.4296 9.14564 80.8131 8.86768 80.9476 8.45669L82.6985 3.10696Z" fill="#070707"/>
<path id="Star_4" d="M117.796 3.10696C118.096 2.18837 119.396 2.18836 119.696 3.10696L121.447 8.45669C121.582 8.86767 121.965 9.14564 122.398 9.14564H128.048C129.019 9.14564 129.42 10.389 128.633 10.9567L124.074 14.2449C123.721 14.4995 123.574 14.9533 123.709 15.367L125.453 20.6964C125.754 21.6165 124.703 22.3848 123.918 21.8185L119.331 18.5101C118.982 18.2581 118.51 18.2581 118.161 18.5101L113.574 21.8185C112.789 22.3848 111.738 21.6165 112.039 20.6964L113.783 15.367C113.918 14.9533 113.771 14.4995 113.418 14.2449L108.859 10.9567C108.072 10.389 108.473 9.14564 109.444 9.14564H115.094C115.527 9.14564 115.91 8.86768 116.045 8.45669L117.796 3.10696Z" fill="#E5E5E5"/>
<path id="Star_5" d="M152.893 3.10696C153.193 2.18837 154.493 2.18836 154.794 3.10696L156.545 8.45669C156.679 8.86767 157.062 9.14564 157.495 9.14564H163.145C164.116 9.14564 164.518 10.389 163.73 10.9567L159.172 14.2449C158.819 14.4995 158.671 14.9533 158.806 15.367L160.55 20.6964C160.852 21.6165 159.8 22.3848 159.015 21.8185L154.428 18.5101C154.079 18.2581 153.608 18.2581 153.258 18.5101L148.671 21.8185C147.886 22.3848 146.835 21.6165 147.136 20.6964L148.88 15.367C149.016 14.9533 148.868 14.4995 148.515 14.2449L143.956 10.9567C143.169 10.389 143.571 9.14564 144.541 9.14564H150.192C150.624 9.14564 151.007 8.86768 151.142 8.45669L152.893 3.10696Z" fill="#E5E5E5"/>
</g>
</svg>
