<svg width="168" height="27" viewBox="0 0 168 27" fill="none" xmlns="http://www.w3.org/2000/svg">
<g id="Group 2">
<path id="Star" d="M12.7937 3.11087C13.0943 2.19227 14.3938 2.19227 14.6945 3.11087L16.4454 8.4606C16.5799 8.87158 16.9633 9.14954 17.3958 9.14954H23.0463C24.0168 9.14954 24.4184 10.3929 23.6313 10.9606L19.0725 14.2488C18.7194 14.5034 18.5717 14.9572 18.7071 15.3709L20.4513 20.7003C20.7524 21.6204 19.7011 22.3887 18.9159 21.8224L14.3291 18.514C13.9798 18.2621 13.5084 18.2621 13.1591 18.514L8.57225 21.8224C7.78712 22.3887 6.73575 21.6204 7.03687 20.7003L8.78113 15.3709C8.91653 14.9572 8.76877 14.5034 8.41573 14.2488L3.8569 10.9606C3.0698 10.3929 3.47141 9.14954 4.44189 9.14954H10.0924C10.5248 9.14954 10.9083 8.87158 11.0428 8.4606L12.7937 3.11087Z" fill="#070707"/>
<path id="Star_2" d="M47.8906 3.11087C48.1913 2.19227 49.4908 2.19227 49.7914 3.11087L51.5423 8.4606C51.6768 8.87158 52.0603 9.14954 52.4927 9.14954H58.1432C59.1137 9.14954 59.5153 10.3929 58.7282 10.9606L54.1694 14.2488C53.8163 14.5034 53.6686 14.9572 53.804 15.3709L55.5482 20.7003C55.8494 21.6204 54.798 22.3887 54.0129 21.8224L49.426 18.514C49.0767 18.2621 48.6053 18.2621 48.256 18.514L43.6692 21.8224C42.884 22.3887 41.8327 21.6204 42.1338 20.7003L43.8781 15.3709C44.0135 14.9572 43.8657 14.5034 43.5127 14.2488L38.9538 10.9606C38.1667 10.3929 38.5683 9.14954 39.5388 9.14954H45.1893C45.6218 9.14954 46.0052 8.87158 46.1397 8.4606L47.8906 3.11087Z" fill="#070707"/>
<path id="Star_3" d="M82.9878 3.11087C83.2884 2.19227 84.5879 2.19227 84.8886 3.11087L86.6395 8.4606C86.774 8.87158 87.1574 9.14954 87.5899 9.14954H93.2404C94.2109 9.14954 94.6125 10.3929 93.8254 10.9606L89.2665 14.2488C88.9135 14.5034 88.7657 14.9572 88.9011 15.3709L90.6454 20.7003C90.9465 21.6204 89.8952 22.3887 89.11 21.8224L84.5232 18.514C84.1739 18.2621 83.7025 18.2621 83.3532 18.514L78.7663 21.8224C77.9812 22.3887 76.9298 21.6204 77.231 20.7003L78.9752 15.3709C79.1106 14.9572 78.9629 14.5034 78.6098 14.2488L74.051 10.9606C73.2639 10.3929 73.6655 9.14954 74.636 9.14954H80.2865C80.7189 9.14954 81.1024 8.87158 81.2369 8.4606L82.9878 3.11087Z" fill="#070707"/>
<path id="Star_4" d="M118.085 3.11087C118.386 2.19227 119.685 2.19227 119.986 3.11087L121.737 8.4606C121.871 8.87158 122.255 9.14954 122.687 9.14954H128.338C129.308 9.14954 129.71 10.3929 128.923 10.9606L124.364 14.2488C124.011 14.5034 123.863 14.9572 123.998 15.3709L125.743 20.7003C126.044 21.6204 124.992 22.3887 124.207 21.8224L119.62 18.514C119.271 18.2621 118.8 18.2621 118.45 18.514L113.864 21.8224C113.078 22.3887 112.027 21.6204 112.328 20.7003L114.072 15.3709C114.208 14.9572 114.06 14.5034 113.707 14.2488L109.148 10.9606C108.361 10.3929 108.763 9.14954 109.733 9.14954H115.384C115.816 9.14954 116.2 8.87158 116.334 8.4606L118.085 3.11087Z" fill="#070707"/>
<path id="Star_5" d="M153.182 3.11087C153.483 2.19227 154.782 2.19227 155.083 3.11087L156.834 8.4606C156.968 8.87158 157.352 9.14954 157.784 9.14954H163.435C164.405 9.14954 164.807 10.3929 164.02 10.9606L159.461 14.2488C159.108 14.5034 158.96 14.9572 159.095 15.3709L160.84 20.7003C161.141 21.6204 160.089 22.3887 159.304 21.8224L154.718 18.514C154.368 18.2621 153.897 18.2621 153.548 18.514L148.961 21.8224C148.176 22.3887 147.124 21.6204 147.425 20.7003L149.17 15.3709C149.305 14.9572 149.157 14.5034 148.804 14.2488L144.245 10.9606C143.458 10.3929 143.86 9.14954 144.83 9.14954H150.481C150.913 9.14954 151.297 8.87158 151.431 8.4606L153.182 3.11087Z" fill="#E5E5E5"/>
</g>
</svg>
