<svg width="41" height="40" viewBox="0 0 41 40" fill="none" xmlns="http://www.w3.org/2000/svg">
<g id="behance" clip-path="url(#clip0_86226_388)">
<path id="Vector" d="M35.0281 0.183594H6.66836C3.4285 0.183594 0.792725 2.80029 0.792725 6.0167V34.1712C0.792725 37.3876 3.4285 40.0043 6.66836 40.0043H35.0281C38.268 40.0043 40.9038 37.3876 40.9038 34.1712V6.0167C40.9038 2.80029 38.268 0.183594 35.0281 0.183594ZM38.5535 34.1712C38.5535 36.101 36.972 37.671 35.0281 37.671H6.66836C4.72451 37.671 3.14298 36.101 3.14298 34.1712V6.0167C3.14298 4.08692 4.72451 2.51684 6.66836 2.51684H35.0281C36.972 2.51684 38.5535 4.08692 38.5535 6.0167V34.1712Z" fill="#070707" stroke="#070707" stroke-width="0.5"/>
<path id="Vector_2" d="M19.6732 16.5942C19.6732 14.021 17.5647 11.9277 14.9726 11.9277H7.92188V28.2604H14.9726C17.5647 28.2604 19.6732 26.1672 19.6732 23.594C19.6732 22.2013 19.0547 20.9499 18.0766 20.0941C19.0547 19.2383 19.6732 17.9869 19.6732 16.5942ZM17.3229 23.594C17.3229 24.8806 16.2687 25.9272 14.9726 25.9272H10.2721V21.2607H14.9726C16.2687 21.2607 17.3229 22.3073 17.3229 23.594ZM10.2721 18.9275V14.261H14.9726C16.2687 14.261 17.3229 15.3076 17.3229 16.5942C17.3229 17.8808 16.2687 18.9275 14.9726 18.9275H10.2721Z" fill="#070707" stroke="#070707" stroke-width="0.5"/>
<path id="Vector_3" d="M27.8991 16.5938C24.6592 16.5938 22.0234 19.2104 22.0234 22.4269C22.0234 25.6433 24.6592 28.26 27.8991 28.26C29.9901 28.26 31.9401 27.1429 32.9879 25.3443L30.9535 24.1759C30.3243 25.2559 29.1538 25.9267 27.8991 25.9267C26.3668 25.9267 25.0601 24.9515 24.5751 23.5935H33.7747V22.4269C33.7747 19.2104 31.1389 16.5938 27.8991 16.5938ZM24.5751 21.2602C25.0601 19.9022 26.3668 18.927 27.8991 18.927C29.4313 18.927 30.7381 19.9022 31.2231 21.2602H24.5751Z" fill="#070707" stroke="#070707" stroke-width="0.5"/>
<path id="Vector_4" d="M23.1985 11.9277H32.5995V14.261H23.1985V11.9277Z" fill="#070707" stroke="#070707" stroke-width="0.5"/>
</g>
<defs>
<clipPath id="clip0_86226_388">
<rect width="40.111" height="39.8207" fill="white" transform="translate(0.792725 0.183594)"/>
</clipPath>
</defs>
</svg>
