<svg width="40" height="41" viewBox="0 0 40 41" fill="none" xmlns="http://www.w3.org/2000/svg">
<g id="surface1 7">
<path id="Vector" d="M30.3709 8.05583L30.6788 7.67057L30.2978 7.35739C27.3824 4.96099 23.68 3.52978 19.6298 3.52978C18.2108 3.52978 16.8351 3.72767 15.5324 4.05189L14.8025 4.23354L15.2525 4.83623C16.6431 6.69866 18.6407 9.51145 21.033 13.9168L21.2397 14.2973L21.6458 14.1472C26.1728 12.4737 28.8858 9.91387 30.3709 8.05583ZM13.0706 5.30594L12.8259 4.98497L12.4605 5.15654C7.9647 7.26772 4.55773 11.3006 3.21273 16.2266L3.04574 16.8382L3.67942 16.858C6.15517 16.9356 12.0731 16.8195 18.6305 15.0706L19.2511 14.9051L18.9384 14.3441C16.3949 9.78077 14.2559 6.86028 13.0706 5.30594ZM32.5244 9.54576L32.1374 9.08805L31.7565 9.55085C30.1007 11.5628 27.2255 14.1764 22.6729 15.9498L22.1646 16.1478L22.406 16.637C23.3875 18.6261 24.3396 20.7457 25.2071 23.0347L25.3503 23.4126L25.7498 23.3519C29.0432 22.8512 32.0875 22.8512 34.3871 23.0305C34.9463 23.0767 35.3072 23.1286 35.7271 23.189C35.8155 23.2017 35.9066 23.2148 36.0027 23.2282L36.5142 23.3001L36.5693 22.7865C36.6368 22.1586 36.6756 21.528 36.6756 20.8762C36.6756 16.5409 35.0978 12.5895 32.5244 9.54576ZM20.3777 17.1394L20.1925 16.7697L19.7946 16.8822C12.081 19.0638 5.28608 18.9971 3.1699 18.9121L2.68831 18.8927L2.65129 19.3733L2.64871 19.4068C2.61215 19.8811 2.57461 20.3682 2.57461 20.8857C2.57461 26.0975 4.83964 30.7494 8.41076 33.9321L8.78263 34.2635L9.11545 33.8929C10.0106 32.8961 11.2111 31.6265 12.6707 30.3013L12.6727 30.2995C15.4188 27.7793 18.9523 25.1124 22.8016 23.9487L23.3202 23.792L23.1225 23.2877C22.2609 21.0897 21.3332 19.0466 20.3777 17.1394ZM29.8677 24.9997L29.8677 24.9997L29.8623 24.9999C28.8513 25.0485 27.775 25.1455 26.6806 25.2909L26.0845 25.37L26.2711 25.9416C27.1947 28.7725 27.9588 31.7714 28.4524 34.8909L28.5768 35.6772L29.2311 35.2237C32.4171 33.015 34.8276 29.7325 35.9506 25.8785L36.1168 25.3081L35.5264 25.2418C34.0664 25.0777 32.2152 24.9123 29.8677 24.9997ZM24.2114 26.1806L24.0576 25.7286L23.599 25.8614C20.2179 26.8408 16.681 29.3805 14.0005 31.8299C12.7052 33.0033 11.6592 34.117 10.8197 35.0294L10.4043 35.4809L10.9304 35.7966C13.4759 37.3241 16.4315 38.2226 19.6204 38.2226C22.0137 38.2226 24.2712 37.7192 26.3329 36.8322L26.682 36.6821L26.6308 36.3055C26.1464 32.7474 25.2921 29.3562 24.2114 26.1806ZM0.575684 20.8762C0.575684 10.1745 9.14083 1.4668 19.6298 1.4668C30.1188 1.4668 38.6839 10.1745 38.6839 20.8762C38.6839 31.5779 30.1188 40.2855 19.6298 40.2855C9.14083 40.2855 0.575684 31.5779 0.575684 20.8762Z" fill="#070707" stroke="#070707"/>
</g>
</svg>
