<svg width="40" height="41" viewBox="0 0 40 41" fill="none" xmlns="http://www.w3.org/2000/svg">
<g id="surface1 6">
<path id="Vector" d="M11.8743 1.47636H12.3743V1.4668H28.279C34.2457 1.4668 39.1261 6.43023 39.1261 12.5268V29.2256C39.1261 35.3224 34.2454 40.2855 28.2884 40.2855H11.8743C5.90626 40.2855 1.01782 35.3303 1.01782 29.2447V12.5363C1.01782 6.44034 5.90706 1.47636 11.8743 1.47636ZM3.02615 12.5449V12.5459V29.2543C3.02615 34.2214 6.9558 38.2329 11.8743 38.2329H28.2884C33.1896 38.2329 37.1178 34.2199 37.1178 29.2351V12.5363C37.1178 7.5512 33.1892 3.53861 28.279 3.53861H11.8743C6.96358 3.53861 3.03608 7.55153 3.02615 12.5449ZM31.1105 8.63198C31.1105 8.04803 31.5624 7.60086 32.1147 7.60086C32.6669 7.60086 33.1188 8.04803 33.1188 8.63198C33.1188 9.21594 32.6669 9.6631 32.1147 9.6631C31.5624 9.6631 31.1105 9.21594 31.1105 8.63198ZM10.0522 20.881C10.0522 15.2539 14.5748 10.6631 20.0814 10.6631C25.5879 10.6631 30.1105 15.2539 30.1105 20.881C30.1105 26.508 25.5879 31.0988 20.0814 31.0988C14.5748 31.0988 10.0522 26.508 10.0522 20.881ZM28.1022 20.881C28.1022 16.3644 24.5399 12.7253 20.0814 12.7253C15.6228 12.7253 12.0605 16.3644 12.0605 20.881C12.0605 25.3976 15.6228 29.0366 20.0814 29.0366C24.5399 29.0366 28.1022 25.3976 28.1022 20.881Z" fill="#070707" stroke="#070707"/>
</g>
</svg>
